<?xml version="1.0" standalone="no"?>
<!DOCTYPE svg PUBLIC "-//W3C//DTD SVG 20010904//EN"
 "http://www.w3.org/TR/2001/REC-SVG-20010904/DTD/svg10.dtd">
<svg version="1.0" xmlns="http://www.w3.org/2000/svg"
 width="1311.000000pt" height="267.000000pt" viewBox="0 0 1311.000000 267.000000"
 preserveAspectRatio="xMidYMid meet">
<metadata>
Created by potrace 1.16, written by Peter Selinger 2001-2019
</metadata>
<g transform="translate(0.000000,267.000000) scale(0.100000,-0.100000)"
fill="#000000" stroke="none">
<path d="M5225 2646 c-5 -3 -27 -7 -47 -11 -20 -3 -59 -21 -86 -39 -58 -39
-71 -42 -343 -96 -120 -23 -164 -83 -179 -240 -8 -79 -16 -112 -40 -160 -17
-34 -37 -63 -44 -66 -7 -3 -47 4 -89 15 -60 15 -94 18 -169 14 -80 -5 -99 -3
-128 13 -30 16 -59 19 -185 20 -85 1 -162 6 -178 13 -16 6 -54 11 -86 11 -57
0 -79 -10 -167 -75 -16 -12 -27 -13 -48 -5 -15 5 -75 10 -134 10 -59 0 -143 7
-187 15 -194 37 -252 45 -285 41 -19 -3 -86 -13 -147 -22 -95 -15 -122 -16
-171 -6 -32 7 -74 12 -93 12 -20 0 -56 7 -82 16 -46 15 -46 16 -72 97 -30 92
-58 135 -118 178 -23 17 -50 44 -61 60 -25 41 -91 76 -156 84 -30 4 -74 13
-98 21 -31 10 -83 13 -180 12 -122 -3 -144 0 -206 21 -59 20 -80 23 -146 17
-60 -5 -86 -3 -116 10 -54 23 -126 14 -210 -25 -38 -18 -80 -40 -94 -49 -14
-9 -52 -24 -85 -33 -33 -9 -73 -21 -90 -27 -16 -6 -49 -16 -72 -22 -22 -5 -63
-25 -90 -43 -53 -37 -142 -147 -174 -217 -11 -25 -23 -51 -27 -58 -4 -7 -33
-24 -66 -37 -93 -38 -119 -70 -140 -175 -3 -14 -22 -48 -43 -74 l-38 -49 -1
-126 c-1 -69 -9 -171 -19 -225 -19 -108 -17 -152 9 -371 19 -151 48 -277 78
-338 10 -21 41 -54 68 -73 28 -20 50 -40 50 -45 0 -5 26 -38 58 -74 31 -35 71
-83 87 -106 22 -31 50 -53 104 -80 58 -30 80 -48 105 -86 25 -38 46 -55 104
-84 65 -33 83 -37 170 -41 85 -4 110 -10 200 -46 98 -40 107 -42 211 -42 122
0 178 13 242 57 28 19 64 33 99 38 92 13 311 11 370 -2 30 -7 78 -13 107 -13
35 0 68 -7 95 -21 49 -25 147 -22 218 6 25 9 65 17 90 17 25 -1 93 -1 152 -1
94 -1 115 -4 181 -31 87 -35 163 -39 223 -14 35 15 54 15 174 5 117 -10 142
-10 185 3 79 25 260 31 314 12 62 -23 295 -22 376 1 33 9 76 17 95 16 332 -5
391 -13 517 -70 62 -28 81 -28 153 -3 30 11 68 19 83 20 15 0 46 9 68 21 36
18 47 19 90 10 79 -17 162 -13 215 10 38 16 66 20 129 18 105 -3 252 14 290
33 17 9 39 25 49 37 10 11 40 34 65 51 l47 29 79 -32 c49 -19 89 -43 105 -61
31 -37 77 -56 138 -56 27 0 71 -4 98 -9 28 -5 90 -6 144 -2 75 7 106 5 145 -7
61 -19 381 -19 430 0 17 6 47 27 69 46 33 30 42 33 74 27 20 -4 49 -13 65 -22
17 -8 62 -19 101 -23 39 -5 103 -20 141 -34 80 -29 156 -33 209 -11 30 13 64
14 194 9 150 -7 159 -6 201 15 41 21 48 22 108 11 66 -13 145 -8 189 12 20 10
29 8 52 -9 79 -58 161 -69 242 -32 40 18 50 19 96 9 36 -9 65 -10 100 -3 29 6
151 8 299 5 138 -3 285 -5 328 -4 129 2 158 2 268 -4 80 -4 116 -2 149 10 38
13 72 14 236 5 170 -9 196 -8 223 6 26 13 57 15 198 10 93 -3 192 -11 221 -17
38 -8 71 -9 115 -1 52 8 79 6 177 -14 126 -26 169 -24 235 10 43 22 90 24 206
12 46 -5 73 -3 89 5 40 21 221 31 276 14 31 -9 94 -14 184 -14 116 0 145 -3
181 -20 75 -34 140 -22 217 39 21 15 51 31 68 35 42 9 101 60 115 101 11 28
22 37 70 55 53 19 119 75 119 100 0 5 21 24 46 42 54 39 80 85 90 159 3 30 15
68 26 86 10 18 28 82 38 142 17 94 18 124 9 213 -6 57 -14 155 -18 218 -7 123
-11 134 -65 198 -19 24 -44 72 -56 109 -32 98 -57 138 -109 174 -25 18 -60 47
-78 65 -18 18 -56 43 -85 57 -29 14 -76 48 -103 75 -67 67 -138 89 -220 71
-46 -10 -58 -10 -72 2 -45 36 -71 43 -178 47 -95 4 -118 1 -160 -16 -28 -11
-79 -23 -114 -27 -36 -3 -85 -14 -111 -24 -36 -14 -66 -17 -136 -13 -83 4 -91
7 -128 38 l-39 33 -136 0 c-75 -1 -185 -5 -245 -10 l-109 -8 -65 36 c-55 31
-75 37 -127 37 -44 1 -69 -4 -90 -18 -36 -24 -145 -39 -255 -37 -92 2 -245
-13 -298 -30 -26 -9 -42 -7 -73 5 -22 9 -75 19 -117 23 -42 3 -93 14 -112 24
-20 9 -53 20 -73 24 -20 4 -52 19 -71 34 -19 14 -61 43 -93 63 -32 21 -69 47
-83 58 -14 11 -43 23 -65 26 -22 3 -76 21 -120 40 -142 59 -241 58 -346 -5
-35 -21 -84 -41 -107 -45 -84 -13 -160 -70 -190 -142 -19 -44 -130 -96 -203
-95 -30 0 -141 1 -247 0 -185 0 -290 11 -320 34 -7 5 -21 29 -31 53 -12 27
-34 52 -59 69 -29 19 -42 35 -46 60 -17 89 -73 166 -144 197 -23 11 -75 22
-115 25 -48 4 -79 11 -92 23 -57 50 -135 67 -215 46 -152 -39 -211 -42 -310
-16 -28 7 -68 9 -105 5 -86 -10 -177 -10 -277 -1 -62 6 -100 5 -131 -3 -37
-11 -50 -10 -82 3 -77 33 -164 20 -265 -39 -14 -8 -38 -15 -55 -15 -16 0 -48
-7 -70 -15 -22 -8 -66 -14 -97 -15 -56 0 -59 2 -99 45 -59 64 -98 80 -188 78
-46 -1 -87 3 -108 12 -35 15 -120 27 -138 21z m95 -1158 c0 -694 -6 -654 113
-692 10 -3 17 -15 17 -31 0 -25 0 -25 -100 -27 -55 -1 -108 -2 -117 -2 -11 -1
-21 10 -27 32 -5 17 -13 32 -18 32 -5 0 -30 -11 -56 -24 -134 -68 -280 -74
-397 -17 -74 37 -147 111 -181 186 -75 162 -39 390 78 508 128 128 358 138
497 22 l31 -27 0 207 c0 168 -3 213 -16 240 -15 33 -65 65 -99 65 -12 0 -15 7
-13 28 3 25 8 28 73 40 39 7 97 19 130 26 33 8 66 14 73 15 9 1 12 -122 12
-581z m-4001 552 c91 -12 186 -44 251 -85 48 -30 46 -31 82 34 18 33 52 42 62
15 3 -9 6 -108 6 -220 l0 -204 -30 0 c-24 0 -31 5 -36 28 -35 158 -128 289
-249 348 -56 27 -68 29 -175 29 -107 0 -119 -2 -174 -29 -145 -71 -228 -223
-257 -467 -36 -309 69 -583 258 -675 128 -63 343 -32 446 64 27 26 27 27 27
158 0 123 -2 135 -22 159 -24 27 -77 44 -141 45 -34 0 -38 3 -35 23 l3 22 278
3 277 2 0 -23 c0 -21 -6 -25 -44 -30 -113 -16 -126 -41 -126 -249 l0 -154
-206 -58 c-307 -87 -419 -87 -599 -1 -240 115 -365 357 -335 648 20 197 109
370 248 483 111 91 209 126 392 143 9 0 53 -4 99 -9z m5897 -125 c24 -213 25
-205 -6 -205 -24 0 -30 7 -49 58 -28 73 -81 146 -123 169 -26 13 -65 18 -181
21 l-148 4 3 -550 3 -550 23 -25 c24 -25 88 -47 136 -47 21 0 26 -5 26 -25 l0
-25 -286 0 -285 0 3 22 c2 18 13 24 63 34 80 15 93 21 110 55 13 24 15 114 15
569 l0 542 -142 -4 c-130 -3 -147 -5 -185 -27 -50 -29 -83 -73 -117 -156 -20
-49 -29 -61 -50 -63 -20 -3 -26 1 -26 15 1 40 30 274 35 283 4 7 214 9 588 8
l582 -3 11 -100z m1922 -56 c66 -23 83 -100 33 -150 -34 -34 -77 -38 -122 -12
-62 37 -54 129 13 158 41 17 38 17 76 4z m-6007 -325 c62 -19 120 -74 137
-130 8 -28 12 -124 12 -295 0 -277 4 -299 55 -299 25 0 65 35 65 56 0 19 29
44 50 44 16 0 17 -4 10 -30 -50 -173 -246 -221 -319 -77 l-23 47 -40 -36 c-58
-52 -139 -86 -217 -91 -56 -4 -73 -1 -111 19 -64 35 -94 92 -93 178 1 77 11
105 52 153 41 46 99 72 240 108 64 17 129 35 145 41 l28 11 -4 91 c-3 50 -11
103 -18 118 -17 35 -66 58 -125 58 -72 0 -100 -20 -126 -90 -32 -88 -83 -120
-142 -89 -28 15 -37 28 -37 57 0 76 111 155 245 176 47 7 161 -4 216 -20z
m1028 0 c49 -21 71 -42 95 -94 19 -41 21 -68 26 -305 6 -299 10 -315 80 -336
32 -10 40 -17 40 -36 l0 -23 -206 0 c-205 0 -205 0 -202 22 2 15 15 25 46 36
78 26 82 41 82 307 0 206 -2 234 -20 273 -46 102 -191 106 -322 9 l-28 -21 0
-225 c0 -124 5 -242 10 -262 12 -44 44 -75 88 -84 25 -5 32 -12 32 -31 l0 -24
-211 0 c-210 0 -210 0 -207 22 2 15 15 25 46 36 78 26 82 40 82 313 0 229 -1
237 -23 270 -20 29 -38 40 -94 55 -16 4 -17 40 -3 49 18 11 244 55 257 51 7
-3 15 -28 19 -55 l7 -51 47 35 c119 88 253 113 359 69z m3383 -291 c3 -297 4
-320 23 -352 56 -94 212 -95 323 -1 l23 19 -3 266 -3 267 -33 29 c-18 16 -43
29 -57 29 -29 0 -36 9 -28 38 5 21 10 22 144 22 l139 0 0 -317 c0 -186 4 -333
10 -355 12 -43 61 -88 96 -88 21 0 24 -5 24 -35 l0 -35 -134 0 -134 0 -7 43
c-12 68 -15 70 -68 33 -151 -107 -332 -114 -421 -16 -19 21 -39 56 -45 77 -6
22 -11 144 -11 291 0 209 -3 260 -15 287 -17 34 -50 55 -90 55 -20 0 -25 5
-25 23 0 13 3 27 7 30 3 4 68 7 144 7 l138 0 3 -317z m2193 288 c22 -10 49
-28 59 -40 25 -28 31 -27 55 14 11 19 27 35 36 35 13 0 15 -20 15 -130 0 -119
-2 -130 -18 -130 -13 0 -25 17 -41 55 -50 120 -165 184 -251 140 -40 -20 -64
-68 -56 -110 10 -49 59 -90 181 -150 129 -63 176 -99 204 -158 27 -55 28 -146
2 -202 -22 -50 -86 -109 -136 -125 -77 -25 -191 -3 -277 54 -27 17 -27 17 -43
-13 -9 -19 -23 -31 -36 -31 -19 0 -19 6 -17 132 3 112 6 133 19 136 11 2 19
-10 28 -39 31 -104 106 -170 202 -177 102 -8 159 33 159 114 0 65 -45 110
-182 179 -174 90 -221 143 -222 250 0 174 154 269 319 196z m1003 -3 c39 -19
61 -39 87 -82 9 -14 17 -12 65 23 79 56 152 83 230 84 86 1 151 -18 190 -56
59 -58 63 -77 69 -362 4 -168 10 -267 18 -280 18 -32 45 -52 81 -60 25 -5 32
-12 32 -31 l0 -24 -211 0 c-210 0 -210 0 -207 22 2 15 15 25 46 36 29 9 50 25
63 46 18 29 19 48 17 276 -3 215 -5 249 -21 273 -31 47 -64 62 -142 62 -73 -1
-107 -13 -173 -62 l-33 -25 3 -252 c3 -286 6 -296 78 -317 32 -10 40 -17 40
-36 l0 -23 -206 0 c-205 0 -205 0 -202 22 2 15 15 25 46 36 78 26 82 41 82
307 0 206 -2 234 -20 273 -15 34 -29 47 -66 64 -74 32 -164 13 -256 -55 l-28
-21 0 -225 c0 -124 5 -242 10 -262 12 -44 44 -75 88 -84 25 -5 32 -12 32 -31
l0 -24 -211 0 c-210 0 -210 0 -207 22 2 15 15 25 46 36 78 26 82 40 82 310 0
187 -3 239 -15 262 -19 37 -52 60 -88 60 -25 0 -28 3 -25 26 2 15 10 30 18 35
25 12 240 50 250 44 5 -3 12 -28 16 -55 l7 -50 47 35 c124 91 258 114 368 63z
m1377 22 c209 -31 335 -182 335 -405 0 -208 -112 -363 -297 -412 -78 -21 -218
-13 -294 16 -169 64 -259 242 -229 452 27 188 154 323 328 348 79 12 79 12
157 1z m-9896 -37 c6 -21 11 -53 11 -72 l0 -34 53 50 c85 81 156 106 220 79
65 -27 88 -100 47 -144 -29 -31 -62 -27 -111 14 -37 31 -47 35 -78 29 -46 -8
-94 -38 -116 -71 -14 -22 -16 -55 -13 -266 l3 -240 28 -24 c15 -13 45 -28 67
-34 33 -9 40 -15 40 -35 l0 -25 -216 0 c-215 0 -215 0 -212 22 2 15 15 25 46
36 78 26 82 40 82 310 0 183 -3 239 -14 261 -19 37 -40 52 -79 60 -27 6 -32
11 -32 35 0 28 1 29 111 51 62 12 118 25 125 28 25 10 28 7 38 -30z m6300 0
c6 -21 11 -53 11 -72 l0 -34 53 50 c60 57 95 77 149 87 71 13 138 -35 138 -99
0 -79 -66 -99 -131 -40 -22 19 -49 35 -61 35 -35 0 -106 -39 -129 -71 -19 -28
-20 -39 -17 -270 l3 -241 28 -24 c15 -13 45 -28 67 -34 33 -9 40 -15 40 -35
l0 -25 -216 0 c-215 0 -215 0 -212 22 2 15 15 25 46 36 29 9 50 25 63 46 18
29 19 48 17 278 l-3 248 -26 26 c-15 14 -42 29 -60 33 -29 6 -34 11 -34 35 0
28 1 29 111 51 62 12 118 25 125 28 25 10 28 7 38 -30z m661 -285 c0 -187 4
-328 11 -351 13 -46 41 -73 85 -82 28 -5 34 -10 34 -30 l0 -25 -211 0 c-210 0
-210 0 -207 22 2 15 15 25 46 36 78 26 82 40 82 313 0 229 -1 237 -23 270 -17
25 -33 36 -65 44 -38 8 -43 12 -40 35 2 20 11 27 38 33 65 15 215 44 233 46
16 1 17 -20 17 -311z"/>
<path d="M4846 1458 c-98 -27 -158 -148 -158 -319 0 -138 27 -222 94 -286 43
-41 76 -53 149 -53 89 0 154 33 206 102 22 31 23 37 23 238 l0 205 -30 37
c-16 20 -49 45 -72 57 -52 24 -158 34 -212 19z"/>
<path d="M3008 1140 c-115 -38 -159 -69 -184 -127 -18 -42 -18 -67 3 -110 35
-75 126 -94 220 -48 28 15 56 32 62 39 8 9 11 60 9 147 l-3 134 -107 -35z"/>
<path d="M11945 1486 c-45 -19 -100 -87 -119 -144 -32 -95 -39 -245 -16 -355
13 -64 53 -139 89 -170 44 -37 126 -53 188 -38 137 35 202 174 190 405 -8 168
-50 256 -142 297 -47 22 -146 24 -190 5z"/>
</g>
</svg>
